<svg version="1.1" id="Layer_1" xmlns="http://www.w3.org/2000/svg" xmlns:xlink="http://www.w3.org/1999/xlink" x="0px" y="0px"
	 width="100%" viewBox="0 0 496 496" enable-background="new 0 0 496 496" xml:space="preserve">
<path fill="#000000" opacity="1.000000" stroke="none" 
	d="
M174.306473,40.179722 
	C196.429230,30.273777 219.438675,26.324177 243.113846,25.641516 
	C265.426453,24.998144 287.743103,24.048800 310.066376,25.012396 
	C332.001495,25.959236 353.970184,26.169872 375.345276,32.646935 
	C395.747467,38.829174 409.468536,50.808811 413.461639,72.409477 
	C414.727264,79.255814 412.799805,85.228226 408.323090,90.453163 
	C407.781647,91.085075 407.124207,91.623253 406.622162,92.282310 
	C403.957825,95.779732 398.607788,97.441978 398.352600,102.455292 
	C397.969299,109.985001 399.695404,117.355240 401.715118,124.587975 
	C402.179810,126.252197 404.016174,126.910690 405.458221,127.735970 
	C429.045410,141.234436 451.441589,156.615723 473.824493,171.946564 
	C482.482330,177.876648 488.370117,186.935242 491.075012,197.558823 
	C492.434753,202.899200 493.024628,208.226807 493.211334,213.778442 
	C495.071472,269.087524 493.906647,324.410675 494.261169,379.725159 
	C494.314392,388.027863 494.386566,396.344116 494.502045,404.631409 
	C494.759216,423.091248 475.404480,442.663940 458.001190,443.485596 
	C454.710510,443.640991 451.469116,444.727844 448.191071,445.305908 
	C446.174927,445.661407 445.591553,446.903290 445.355164,448.789978 
	C444.160461,458.325043 437.683105,464.351440 428.081909,464.083435 
	C420.957855,463.884613 414.593506,461.176178 411.152222,454.414093 
	C409.418793,451.007935 407.443268,450.090210 403.686981,450.551147 
	C366.015808,455.173767 328.328888,459.671539 290.630402,464.067291 
	C266.827911,466.842773 243.005157,469.450836 219.173843,471.966888 
	C215.299805,472.375885 213.390396,474.077911 212.071014,477.687378 
	C208.958466,486.202362 199.876160,491.273376 189.490616,490.807343 
	C178.908020,490.332458 172.561371,485.833252 169.819901,476.350891 
	C168.872864,473.075195 167.344757,471.468323 163.916245,470.664886 
	C158.841522,469.475677 154.809158,465.903503 150.384323,463.279968 
	C130.466858,451.470917 110.604851,439.567719 90.786980,427.592316 
	C88.402885,426.151672 86.535690,425.792664 83.943970,427.230072 
	C78.689468,430.144287 73.036705,429.943634 67.453712,428.121704 
	C57.256001,424.793945 48.411495,419.917969 45.695633,408.331360 
	C45.543999,407.684448 45.019711,406.995392 45.145489,406.432434 
	C47.016171,398.059540 40.399418,395.893066 35.208740,392.591492 
	C30.269056,389.449585 26.810448,385.281433 25.407904,379.316254 
	C24.231640,374.313507 22.408772,369.438507 20.572796,364.621063 
	C18.115108,358.172333 16.140728,351.650970 16.854094,344.676086 
	C17.478998,338.566101 14.115093,333.037781 14.683710,326.920471 
	C15.669504,316.315033 16.356665,305.682037 17.200550,295.063141 
	C18.716599,275.986206 20.253885,256.910950 21.786110,237.835266 
	C23.451675,217.099533 24.253143,196.242615 27.130901,175.676361 
	C28.734381,164.216873 36.268837,154.799927 44.916401,146.844269 
	C57.294163,135.456848 72.400894,131.467041 88.693405,129.658310 
	C110.524445,127.234718 132.256470,123.911346 154.018753,120.886078 
	C156.851959,120.492218 160.878082,121.034691 161.609344,117.454140 
	C162.516083,113.014450 163.254395,108.098923 159.278503,104.310555 
	C155.658539,100.861328 152.185471,97.378517 149.774155,92.839943 
	C142.676453,79.480621 143.897018,67.109207 153.771072,55.553352 
	C159.379318,48.989864 166.115799,43.927357 174.306473,40.179722 
M158.275757,359.579254 
	C157.894257,378.899261 157.585342,398.221222 157.071579,417.537720 
	C156.965500,421.525879 157.977554,422.556793 162.193420,422.129456 
	C179.090759,420.416534 196.033401,419.138123 212.967316,417.800842 
	C244.003494,415.349915 275.051483,413.046875 306.082916,410.538574 
	C331.637482,408.472992 357.167053,406.098083 382.722534,404.044495 
	C413.751953,401.551086 444.793976,399.211395 475.839203,396.922272 
	C479.351105,396.663300 480.782196,395.474457 480.810425,391.786316 
	C480.912384,378.462708 481.466675,365.142334 481.551636,351.818848 
	C481.781097,315.825531 481.911499,279.831268 481.963135,243.837204 
	C481.980072,232.029922 483.884003,220.406769 480.110138,208.402161 
	C476.796814,197.862656 473.511932,188.547638 463.785400,182.180237 
	C448.596558,172.237061 433.802460,161.691177 418.835297,151.409119 
	C414.241058,148.252975 409.627777,145.124435 404.136353,141.378281 
	C404.763763,145.914322 405.231537,149.341690 405.713013,152.767136 
	C406.629028,159.283966 403.745422,163.481857 397.132111,164.328186 
	C391.031647,165.108902 384.855652,165.298111 378.713287,165.753082 
	C349.989471,167.880722 321.270111,170.070755 292.540710,172.120239 
	C268.629120,173.826035 244.710770,175.448105 220.783554,176.913803 
	C215.989426,177.207489 211.193481,179.141663 206.410553,177.752197 
	C192.961731,173.845276 179.872101,169.079803 167.708710,161.906326 
	C161.311142,158.133286 159.359085,152.866180 160.227051,145.936264 
	C160.654495,142.523605 160.865707,139.083862 161.167572,135.736115 
	C157.527939,134.343048 154.666977,135.850510 151.791473,136.238022 
	C125.231941,139.817230 98.687500,143.509430 72.146927,147.227676 
	C64.755783,148.263138 58.254910,151.895615 55.387497,156.532303 
	C65.133171,151.807144 74.482170,152.712479 84.086281,156.528992 
	C105.038231,164.854935 124.030479,177.118561 144.598755,186.191544 
	C149.041672,188.151382 152.942047,191.033936 156.776825,193.984634 
	C160.171722,196.596848 162.600296,199.931366 163.989944,203.961151 
	C164.576324,205.661591 164.321899,207.414185 162.413132,208.163666 
	C160.638763,208.860382 159.594101,207.671494 158.945465,206.177032 
	C157.152069,202.045074 153.950821,199.249084 150.429108,196.606140 
	C143.286285,191.245697 135.010956,188.082031 127.136528,184.126099 
	C112.856422,176.952087 99.200233,168.547226 84.360825,162.474518 
	C76.054352,159.075256 67.868866,156.351166 58.910191,160.949463 
	C55.079433,162.915710 51.999535,167.016541 46.849743,166.086960 
	C46.513069,166.026199 45.856209,166.927460 45.575848,167.493896 
	C43.156498,172.381744 40.461773,176.980606 40.022514,182.806152 
	C38.245232,206.376846 35.980438,229.910706 33.906693,253.459152 
	C31.292793,283.141327 28.769421,312.831970 25.987425,342.498352 
	C25.613775,346.482849 26.942186,348.445221 30.228523,350.382965 
	C65.521416,371.192688 100.720917,392.160767 135.965332,413.052826 
	C138.176620,414.363586 140.257721,416.133911 142.954758,416.222717 
	C144.236130,414.292389 143.891678,412.406830 143.960907,410.620331 
	C144.554199,395.310516 145.074020,379.997833 145.671494,364.688171 
	C147.022064,330.081360 148.399582,295.475647 149.777496,260.869934 
	C150.095566,252.882019 150.447159,244.895401 150.807327,236.909271 
	C150.979248,233.096985 152.053879,229.560745 156.605286,229.727875 
	C161.059464,229.891464 162.152283,233.442856 162.064865,237.252762 
	C161.992462,240.408691 161.455704,243.553223 161.366959,246.709625 
	C160.318268,284.007629 159.315216,321.306915 158.275757,359.579254 
M386.114166,152.754807 
	C391.671448,152.966614 392.333069,149.707382 391.572113,145.246078 
	C389.585144,133.596954 387.985657,121.872360 385.654022,110.294197 
	C383.581268,100.001549 386.218018,91.973053 394.869324,85.884781 
	C399.368286,82.718674 400.147400,78.005760 399.324921,72.951218 
	C397.523010,61.877048 390.438721,55.508492 380.303833,51.937275 
	C370.335663,48.424797 360.041809,46.085758 349.509369,46.218334 
	C324.035706,46.538975 298.526154,44.844734 273.089203,47.307434 
	C257.020233,48.863163 240.902863,50.220703 225.423843,55.292130 
	C214.768631,58.783119 204.479126,63.097160 195.997604,70.666534 
	C190.753067,75.347031 190.135101,79.734100 193.566360,85.871735 
	C196.001251,90.227173 198.925766,94.305794 201.499237,98.587608 
	C204.746384,103.990318 206.904343,109.931541 205.938110,116.186653 
	C203.808105,129.975693 203.564499,143.661514 205.941544,157.430527 
	C207.150330,164.432327 207.278778,165.061813 214.325851,164.682114 
	C229.620056,163.858017 244.897186,162.707062 260.177368,161.634018 
	C301.860748,158.706818 343.542145,155.750717 386.114166,152.754807 
M295.903717,450.233948 
	C315.921387,447.983429 335.933289,445.680389 355.958008,443.494293 
	C388.717743,439.917938 421.479645,436.358582 454.254456,432.923950 
	C463.245575,431.981720 473.735291,424.509583 475.958679,416.898346 
	C474.570374,415.542175 472.817871,416.113434 471.245209,416.192017 
	C464.260468,416.540924 457.274231,416.916290 450.302643,417.461945 
	C417.951538,419.993927 385.607117,422.611176 353.256470,425.148834 
	C323.063599,427.517212 292.884094,430.101196 262.665466,432.083405 
	C229.113388,434.284241 195.664337,437.856506 162.067474,439.422394 
	C156.016449,439.704468 154.346954,442.520569 157.891754,447.394226 
	C165.197189,457.438293 175.327698,463.515900 187.814407,462.282654 
	C223.588791,458.749451 259.285095,454.425629 295.903717,450.233948 
M167.260391,59.757576 
	C155.017929,72.474670 155.194809,82.827843 167.863052,94.928619 
	C168.344452,95.388451 168.832336,95.841988 169.328690,96.285583 
	C173.271530,99.809395 175.263107,104.170319 175.218307,109.501328 
	C175.121902,120.972466 175.900970,132.480087 173.502960,143.841324 
	C172.838272,146.990463 173.454330,149.753418 176.310806,151.764694 
	C182.497025,156.120483 189.575287,158.125839 197.580154,160.723618 
	C194.875946,148.695175 195.493317,137.530029 195.851517,126.469513 
	C196.273682,113.433823 194.075363,101.892921 185.901093,91.062286 
	C178.502335,81.259155 182.112396,68.056091 192.324265,60.968552 
	C206.978363,50.797905 223.269928,45.030216 240.876709,42.655857 
	C251.208908,41.262512 261.454102,39.270054 271.847260,38.264168 
	C267.518372,37.995644 263.225006,38.127113 258.941986,37.971882 
	C243.911377,37.427132 229.002319,38.589939 214.226990,41.261074 
	C197.601990,44.266602 181.345764,48.350136 167.260391,59.757576 
M400.729156,415.016907 
	C415.670380,413.926605 430.611755,412.838776 445.552734,411.745087 
	C455.178680,411.040466 464.804565,410.334534 474.429352,409.614105 
	C478.099304,409.339417 480.950562,408.312134 479.786194,403.326141 
	C477.990662,403.326141 476.344727,403.225494 474.714264,403.341522 
	C455.292847,404.723267 435.867279,406.054504 416.455688,407.564392 
	C393.726410,409.332306 371.018036,411.371307 348.285522,413.094208 
	C323.392853,414.980774 298.471069,416.487823 273.583710,418.437836 
	C242.050171,420.908600 210.536438,423.624542 178.951569,425.400177 
	C172.970673,425.736420 167.007645,426.380432 161.031860,426.821289 
	C158.212372,427.029327 156.049088,427.810852 156.454620,431.255707 
	C156.886688,434.925995 159.738159,433.914978 161.867950,433.819092 
	C165.520752,433.654663 169.155075,433.119537 172.805176,432.848053 
	C196.374985,431.095093 219.952438,429.441925 243.516937,427.621033 
	C276.041901,425.107697 308.559235,422.494507 341.076782,419.886322 
	C360.652069,418.316223 380.221558,416.674500 400.729156,415.016907 
M72.604805,395.953735 
	C59.906971,388.501831 47.209133,381.049927 33.300377,372.887390 
	C36.878143,380.880524 42.057480,385.633087 48.128258,388.909882 
	C73.318024,402.506317 98.170135,416.685730 122.877975,431.128357 
	C129.406433,434.944489 135.980835,438.681976 142.731461,442.569214 
	C144.481552,438.570831 143.029999,436.766998 140.176956,435.122803 
	C117.831009,422.245148 95.545029,409.263458 72.604805,395.953735 
M68.985435,386.483368 
	C93.466866,400.525726 117.948296,414.568085 142.789642,428.816895 
	C144.368027,423.879242 141.021072,422.817383 138.661194,421.428223 
	C106.809883,402.678894 74.923225,383.989532 43.034569,365.303711 
	C37.943752,362.320648 32.800453,359.427155 27.324881,356.287842 
	C27.909483,361.834076 30.564877,364.911163 34.847176,367.238892 
	C46.108128,373.359985 57.195934,379.799591 68.985435,386.483368 
M53.933136,406.068512 
	C58.736389,415.935974 69.594238,422.405151 77.742180,419.344086 
	C69.071808,415.134674 62.410854,408.827393 53.933136,406.068512 
M201.289581,478.073975 
	C202.505997,477.288666 204.051956,476.742035 203.546356,473.847717 
	C195.809326,476.385498 187.866867,474.735596 179.433105,474.662811 
	C184.022339,481.037994 190.734406,481.999237 201.289581,478.073975 
M430.087280,454.639923 
	C433.198059,453.149048 436.485199,451.812042 436.584900,446.804657 
	C430.355255,447.385345 424.405884,447.489349 418.330627,449.907074 
	C421.082367,454.878845 424.526489,456.498718 430.087280,454.639923 
z"/>
<path fill="#000000" opacity="1.000000" stroke="none" 
	d="
M312.216278,327.182617 
	C310.041779,325.549255 308.902710,323.677429 308.946136,321.401154 
	C309.142487,311.111633 306.859161,300.880890 308.722992,290.522949 
	C310.011963,283.359650 310.894165,281.685211 318.132355,280.446228 
	C333.047485,277.893219 347.987000,275.472412 362.944550,273.180389 
	C382.178436,270.233063 401.416107,267.288483 420.699524,264.695312 
	C430.326050,263.400787 434.918365,268.302917 434.342529,278.067535 
	C433.950897,284.708923 433.842621,291.366516 433.503143,298.011536 
	C433.216309,303.626312 430.039062,306.831146 424.668457,307.948578 
	C417.011841,309.541687 409.371765,311.251221 401.662506,312.539398 
	C397.429779,313.246643 395.884613,315.040070 395.973999,319.461517 
	C396.273438,334.275024 396.268768,349.097961 396.155853,363.915588 
	C396.032013,380.169708 394.555237,381.492279 378.616180,382.310303 
	C371.801208,382.660065 365.006439,383.388855 358.168549,383.145752 
	C349.832672,382.849396 347.643494,380.156372 348.247192,371.940338 
	C349.319305,357.349213 349.822205,342.716278 351.652222,328.181549 
	C351.852234,326.592926 352.184692,324.870270 350.792480,322.591339 
	C343.635132,323.909668 336.199829,325.318634 328.748688,326.638367 
	C323.398346,327.586029 318.082672,329.614929 312.216278,327.182617 
z"/>
<path fill="#000000" opacity="1.000000" stroke="none" 
	d="
M308.910400,279.948059 
	C305.343353,281.019440 306.032806,283.652283 306.104065,285.878967 
	C306.508728,298.525421 307.013275,311.168610 307.435913,323.814514 
	C307.625092,329.474884 307.381073,335.118652 306.675934,340.749084 
	C306.070221,345.585541 303.396576,348.336090 298.625977,348.808685 
	C288.361877,349.825592 278.092957,350.962402 267.749268,350.415588 
	C261.999725,350.111603 259.740936,348.119873 260.058105,342.332550 
	C260.868378,327.547943 260.395538,312.694611 262.361908,297.972046 
	C262.493958,296.983521 262.528717,295.982117 262.654236,294.992523 
	C263.133820,291.212616 261.919464,289.898224 257.876038,290.827362 
	C248.638550,292.949982 239.332230,294.798340 230.008896,296.513580 
	C223.370193,297.734863 217.551987,293.832611 217.303162,287.280731 
	C216.893402,276.491791 217.434692,265.665009 219.215790,254.979095 
	C219.871292,251.046234 223.310425,249.980011 226.673309,249.342651 
	C238.115341,247.174057 249.558914,245.006714 261.030121,243.000229 
	C281.840118,239.360199 302.669250,235.828995 323.493958,232.273483 
	C325.952789,231.853653 328.433655,231.561752 330.905396,231.218460 
	C338.774597,230.125565 344.203644,234.783051 344.075043,242.755554 
	C343.962311,249.742996 343.684479,256.731995 343.288544,263.709442 
	C342.926086,270.096100 340.922852,272.737305 334.660767,274.281036 
	C326.263275,276.351105 317.759857,277.991547 308.910400,279.948059 
z"/>
<path fill="#000000" opacity="1.000000" stroke="none" 
	d="
M209.610382,195.582367 
	C223.866898,194.689682 237.656235,193.773331 251.453888,193.006454 
	C287.872070,190.982361 324.290741,188.962692 360.715393,187.060074 
	C383.502014,185.869827 406.299683,184.890533 429.092773,183.825134 
	C437.244629,183.444092 445.397705,183.088562 453.550140,182.720108 
	C454.548676,182.675003 455.548462,182.558487 456.544952,182.583389 
	C461.501038,182.707184 464.956360,185.067856 464.946075,188.670502 
	C464.932251,193.510529 461.405396,195.381378 457.398376,195.815399 
	C450.621582,196.549408 443.788086,196.793686 436.972900,197.133209 
	C397.550415,199.097122 358.129089,201.086578 318.701630,202.946533 
	C299.235291,203.864838 279.751129,204.404831 260.285156,205.330032 
	C235.163528,206.524078 210.052536,207.950546 184.897156,208.246994 
	C180.395950,208.300049 175.879959,208.383377 171.656906,206.375443 
	C170.302856,205.731613 168.688232,205.297562 168.727493,203.416580 
	C168.760239,201.846909 170.128433,201.335800 171.297638,200.662247 
	C176.071533,197.912079 181.363403,197.275864 186.692307,196.912582 
	C194.171661,196.402664 201.661591,196.047928 209.610382,195.582367 
z"/>
</svg>